<svg xmlns="http://www.w3.org/2000/svg" viewBox="0 0 56 56" fill="none">
  <!-- Apple logo shape -->
  <path d="M35.5 8.5c1.2-1.5 2-3.5 1.8-5.5-1.8.1-3.9 1.2-5.2 2.7-1.1 1.3-2.1 3.4-1.8 5.4 2 .1 4-1.1 5.2-2.6z" fill="currentColor"/>
  <path d="M37.3 11.8c-2.9-.2-5.3 1.6-6.7 1.6-1.4 0-3.5-1.5-5.8-1.5-3 .1-5.7 1.7-7.2 4.4-3.1 5.3-0.8 13.2 2.2 17.5 1.5 2.1 3.2 4.5 5.5 4.4 2.2-.1 3-1.4 5.7-1.4 2.6 0 3.4 1.4 5.7 1.3 2.4 0 3.9-2.2 5.3-4.3 1.7-2.4 2.4-4.8 2.4-4.9-.1 0-4.6-1.8-4.6-6.9 0-4.4 3.6-6.4 3.7-6.5-2-3-5.2-3.7-6.2-3.7z" fill="currentColor"/>
</svg>
