<?xml version="1.0" encoding="UTF-8"?>
<svg version="1.1" xmlns="http://www.w3.org/2000/svg" width="200" height="200">
<path d="M0 0 C1.67542976 0.28604898 3.34385343 0.61781233 5 1 C5.24234375 1.90621094 5.4846875 2.81242187 5.734375 3.74609375 C10.08990728 19.57677838 16.37749636 32.1714236 28 44 C28.54140625 44.55429688 29.0828125 45.10859375 29.640625 45.6796875 C38.31941616 53.78865904 49.71176228 58.83195692 61 62 C61.75925781 62.22429687 62.51851563 62.44859375 63.30078125 62.6796875 C64.86237156 63.13658567 66.43027257 63.57189252 68 64 C68 65.65 68 67.3 68 69 C67.00742188 69.27972656 66.01484375 69.55945313 64.9921875 69.84765625 C51.7316313 73.70867806 39.4565923 78.68264733 29 88 C28.33742188 88.56976563 27.67484375 89.13953125 26.9921875 89.7265625 C16.74039931 99.17428888 11.05160554 110.89186443 7 124 C6.39916144 125.7927855 5.79549744 127.58462967 5.1875 129.375 C4.795625 130.57125 4.40375 131.7675 4 133 C2.35 132.67 0.7 132.34 -1 132 C-1.1959375 131.175 -1.391875 130.35 -1.59375 129.5 C-5.06429035 116.09653381 -10.62032588 103.35932897 -20 93 C-20.87011719 91.99259766 -20.87011719 91.99259766 -21.7578125 90.96484375 C-32.81712349 78.95693077 -48.44673322 72.76585003 -64 69 C-64 67.35 -64 65.7 -64 64 C-62.75605469 63.63648438 -61.51210937 63.27296875 -60.23046875 62.8984375 C-38.66808546 56.44880043 -21.24297608 46.16345944 -10 26 C-6.12211011 18.60834133 -3.30656265 11.43159917 -1.54296875 3.265625 C-1 1 -1 1 0 0 Z " fill="currentColor" transform="translate(128,41)"/>
<path d="M0 0 C1.88671875 0.1640625 1.88671875 0.1640625 4 1 C5.01953125 3.3359375 5.01953125 3.3359375 5.8125 6.375 C9.23549439 17.5030358 15.05171287 25.79993437 25 32 C28.92152361 33.91675468 32.90226667 35.50464611 37 37 C38.66854899 37.66194146 40.33585374 38.32706654 42 39 C41.76953125 40.91796875 41.76953125 40.91796875 41 43 C39.13671875 43.80078125 39.13671875 43.80078125 36.6875 44.3125 C25.23770218 47.36359225 16.5880551 53.66128628 10.3515625 63.63671875 C7.13869913 69.25531152 4.82976774 74.79912045 3 81 C1.11328125 80.8359375 1.11328125 80.8359375 -1 80 C-2.01953125 77.6640625 -2.01953125 77.6640625 -2.8125 74.625 C-6.12829037 63.74506286 -11.84273979 55.01360172 -21.828125 49.4140625 C-27.41956072 46.53405164 -33.05867404 44.05661283 -39 42 C-38.8359375 40.11328125 -38.8359375 40.11328125 -38 38 C-35.6640625 36.98046875 -35.6640625 36.98046875 -32.625 36.1875 C-21.4969642 32.76450561 -13.20006563 26.94828713 -7 17 C-5.08324532 13.07847639 -3.49535389 9.09773333 -2 5 C-1.33805854 3.33145101 -0.67293346 1.66414626 0 0 Z " fill="currentColor" transform="translate(46,7)"/>
<path d="M0 0 C0.99 0.33 1.98 0.66 3 1 C3.95703125 3.0390625 3.95703125 3.0390625 4.8125 5.625 C7.34396271 12.31188263 10.57420689 16.96471084 17 20.3125 C20.2596378 21.77306847 23.57710429 22.97313129 27 24 C27 24.99 27 25.98 27 27 C26.28714844 27.21914062 25.57429688 27.43828125 24.83984375 27.6640625 C15.09818329 30.88943057 9.71448093 34.69416871 5 43.875 C3.89793074 46.21689719 2.86586563 48.55983322 2 51 C0.515 50.505 0.515 50.505 -1 50 C-1.95703125 47.9609375 -1.95703125 47.9609375 -2.8125 45.375 C-6.06312567 36.84058579 -10.40857637 32.81403417 -18.6328125 28.9453125 C-20.75053755 28.09962032 -22.77493725 27.48192603 -25 27 C-25 26.01 -25 25.02 -25 24 C-24.28714844 23.78085938 -23.57429688 23.56171875 -22.83984375 23.3359375 C-13.09818329 20.11056943 -7.71448093 16.30583129 -3 7.125 C-1.89793074 4.78310281 -0.86586563 2.44016678 0 0 Z " fill="currentColor" transform="translate(59,137)"/>
</svg>
